<svg width="1280" height="420" viewBox="0 0 1280 420" fill="none" xmlns="http://www.w3.org/2000/svg">
  <defs>
    <linearGradient id="bg" x1="0" y1="0" x2="1280" y2="420" gradientUnits="userSpaceOnUse">
      <stop stop-color="#071019"/>
      <stop offset="0.55" stop-color="#0A1730"/>
      <stop offset="1" stop-color="#0A0F18"/>
    </linearGradient>
    <radialGradient id="glowLeft" cx="0" cy="0" r="1" gradientUnits="userSpaceOnUse" gradientTransform="translate(182 62) rotate(44.212) scale(332.099 289.482)">
      <stop stop-color="#38BDF8" stop-opacity="0.34"/>
      <stop offset="1" stop-color="#38BDF8" stop-opacity="0"/>
    </radialGradient>
    <radialGradient id="glowRight" cx="0" cy="0" r="1" gradientUnits="userSpaceOnUse" gradientTransform="translate(1128 370) rotate(-155.129) scale(323.816 236.092)">
      <stop stop-color="#2DD4BF" stop-opacity="0.24"/>
      <stop offset="1" stop-color="#2DD4BF" stop-opacity="0"/>
    </radialGradient>
    <linearGradient id="cardStroke" x1="116" y1="56" x2="1180" y2="364" gradientUnits="userSpaceOnUse">
      <stop stop-color="white" stop-opacity="0.25"/>
      <stop offset="1" stop-color="white" stop-opacity="0.06"/>
    </linearGradient>
    <linearGradient id="signal" x1="820" y1="137" x2="1064" y2="137" gradientUnits="userSpaceOnUse">
      <stop stop-color="#60A5FA"/>
      <stop offset="1" stop-color="#22D3EE"/>
    </linearGradient>
    <filter id="blur" x="0" y="0" width="1280" height="420" filterUnits="userSpaceOnUse" color-interpolation-filters="sRGB">
      <feGaussianBlur stdDeviation="40"/>
    </filter>
  </defs>

  <rect width="1280" height="420" rx="28" fill="url(#bg)"/>

  <g opacity="0.12">
    <path d="M0 84H1280" stroke="white"/>
    <path d="M0 168H1280" stroke="white"/>
    <path d="M0 252H1280" stroke="white"/>
    <path d="M0 336H1280" stroke="white"/>
    <path d="M182 0V420" stroke="white"/>
    <path d="M364 0V420" stroke="white" stroke-opacity="0.82"/>
    <path d="M546 0V420" stroke="white" stroke-opacity="0.82"/>
    <path d="M728 0V420" stroke="white"/>
    <path d="M910 0V420" stroke="white" stroke-opacity="0.82"/>
    <path d="M1092 0V420" stroke="white" stroke-opacity="0.82"/>
  </g>

  <g filter="url(#blur)">
    <circle cx="186" cy="74" r="150" fill="url(#glowLeft)"/>
    <circle cx="1110" cy="352" r="150" fill="url(#glowRight)"/>
  </g>

  <rect x="96" y="52" width="1088" height="316" rx="26" fill="white" fill-opacity="0.045"/>
  <rect x="96.75" y="52.75" width="1086.5" height="314.5" rx="25.25" stroke="url(#cardStroke)" stroke-width="1.5"/>

  <rect x="128" y="82" width="138" height="32" rx="16" fill="#0F2143"/>
  <circle cx="146" cy="98" r="5.5" fill="#67E8F9"/>
  <text x="162" y="103" fill="#DDEBFF" font-family="'Segoe UI', Inter, Arial, sans-serif" font-size="14" font-weight="700" letter-spacing="0.16em">OFFLINE FIRST</text>

  <text x="128" y="168" fill="#F6FBFF" font-family="'Segoe UI', Inter, Arial, sans-serif" font-size="72" font-weight="700" letter-spacing="0.05em">WIREGLASS</text>
  <text x="132" y="200" fill="#89A3C9" font-family="'Segoe UI', Inter, Arial, sans-serif" font-size="15" font-weight="700" letter-spacing="0.22em">LOCAL PCAP TRIAGE WORKSTATION</text>

  <text x="128" y="252" fill="#DCEAFF" font-family="'Segoe UI', Inter, Arial, sans-serif" font-size="30" font-weight="600">
    Turn packet captures into a readable case summary,
  </text>
  <text x="128" y="290" fill="#DCEAFF" font-family="'Segoe UI', Inter, Arial, sans-serif" font-size="30" font-weight="600">
    recovered artifacts, and investigation pivots.
  </text>

  <g>
    <rect x="128" y="316" width="118" height="36" rx="18" fill="#112346"/>
    <text x="157" y="339" fill="#E6F3FF" font-family="'Segoe UI', Inter, Arial, sans-serif" font-size="15" font-weight="600">PCAPNG</text>

    <rect x="258" y="316" width="114" height="36" rx="18" fill="#112346"/>
    <text x="291" y="339" fill="#E6F3FF" font-family="'Segoe UI', Inter, Arial, sans-serif" font-size="15" font-weight="600">JSON</text>

    <rect x="384" y="316" width="114" height="36" rx="18" fill="#112346"/>
    <text x="418" y="339" fill="#E6F3FF" font-family="'Segoe UI', Inter, Arial, sans-serif" font-size="15" font-weight="600">HTML</text>

    <rect x="510" y="316" width="126" height="36" rx="18" fill="#112346"/>
    <text x="542" y="339" fill="#E6F3FF" font-family="'Segoe UI', Inter, Arial, sans-serif" font-size="15" font-weight="600">Web UI</text>
  </g>

  <g>
    <rect x="786" y="86" width="332" height="250" rx="24" fill="#0C1630" fill-opacity="0.74"/>
    <rect x="786.75" y="86.75" width="330.5" height="248.5" rx="23.25" stroke="white" stroke-opacity="0.08" stroke-width="1.5"/>

    <text x="820" y="122" fill="#7FC8FF" font-family="'Segoe UI', Inter, Arial, sans-serif" font-size="14" font-weight="700" letter-spacing="0.18em">CASE SURFACES</text>
    <rect x="820" y="136" width="244" height="3" rx="1.5" fill="url(#signal)"/>

    <rect x="820" y="164" width="230" height="34" rx="17" fill="#102044"/>
    <text x="842" y="186" fill="#EBF5FF" font-family="'Segoe UI', Inter, Arial, sans-serif" font-size="15" font-weight="600">Protocol metadata and summaries</text>

    <rect x="820" y="208" width="208" height="34" rx="17" fill="#102044"/>
    <text x="842" y="230" fill="#EBF5FF" font-family="'Segoe UI', Inter, Arial, sans-serif" font-size="15" font-weight="600">Suspicious scans and beaconing</text>

    <rect x="820" y="252" width="212" height="34" rx="17" fill="#102044"/>
    <text x="842" y="274" fill="#EBF5FF" font-family="'Segoe UI', Inter, Arial, sans-serif" font-size="15" font-weight="600">Artifact recovery and SHA-256</text>

    <rect x="820" y="296" width="182" height="34" rx="17" fill="#102044"/>
    <text x="842" y="318" fill="#EBF5FF" font-family="'Segoe UI', Inter, Arial, sans-serif" font-size="15" font-weight="600">Intel pivots and triage flow</text>
  </g>
</svg>
